<svg width="40" height="40" viewBox="0 0 40 40" fill="none" xmlns="http://www.w3.org/2000/svg">
<g clip-path="url(#clip0_2_944)">
<path d="M8.75244 10.0031V35.625C8.75244 38.0369 10.7156 40 13.1274 40H26.8724C29.2843 40 31.2474 38.0369 31.2474 35.625V10.0031C31.2474 7.805 29.6149 5.985 27.4999 5.68062V5C27.8456 5 28.1249 4.72062 28.1249 4.375V0.625C28.1249 0.279375 27.8456 0 27.4999 0H12.4999C12.1543 0 11.8749 0.279375 11.8749 0.625V4.375C11.8749 4.72062 12.1543 5 12.4999 5V5.68125C10.3849 5.98563 8.75244 7.805 8.75244 10.0031ZM13.1249 1.25H26.8749V3.75H13.1249V1.25ZM29.3681 37.4863C29.3581 37.1494 29.0856 36.8787 28.7468 36.8787H28.7399C28.3949 36.8787 28.1187 37.1581 28.1187 37.5037C28.1187 37.8425 28.3918 38.115 28.7281 38.125C28.2081 38.5125 27.5693 38.75 26.8724 38.75H13.1274C11.4043 38.75 10.0024 37.3481 10.0024 35.625V11.2481H29.9974V35.625C29.9974 36.3244 29.7581 36.9644 29.3681 37.4863ZM29.9968 9.99813H10.0031C10.0056 8.27938 11.4049 6.88125 13.1249 6.88125H26.8749C26.8756 6.88125 26.8762 6.88062 26.8768 6.88062C28.5962 6.88188 29.9943 8.27938 29.9968 9.99813ZM26.2499 5.63125H13.7499V5.00125H26.2499V5.63125Z" fill="#BD0707"/>
<path d="M26.25 16.2494H13.75C13.4044 16.2494 13.125 16.5288 13.125 16.8744V30.6294C13.125 30.975 13.4044 31.2544 13.75 31.2544H26.25C26.5956 31.2544 26.875 30.975 26.875 30.6294V16.8744C26.875 16.5288 26.5956 16.2494 26.25 16.2494ZM25.625 30.0044H14.375V17.4994H25.625V30.0044Z" fill="#BD0707"/>
<path d="M11.2468 34.3787H11.2399C10.8949 34.3787 10.6187 34.658 10.6187 35.0037C10.6187 35.3493 10.9012 35.6287 11.2468 35.6287C11.5918 35.6287 11.8718 35.3493 11.8718 35.0037C11.8718 34.658 11.5918 34.3787 11.2468 34.3787Z" fill="#BD0707"/>
<path d="M13.7468 36.8787H13.7399C13.3949 36.8787 13.1187 37.158 13.1187 37.5037C13.1187 37.8493 13.4012 38.1287 13.7468 38.1287C14.0918 38.1287 14.3718 37.8493 14.3718 37.5037C14.3718 37.158 14.0918 36.8787 13.7468 36.8787Z" fill="#BD0707"/>
<path d="M11.2468 29.3787H11.2399C10.8949 29.3787 10.6187 29.658 10.6187 30.0037C10.6187 30.3493 10.9012 30.6287 11.2468 30.6287C11.5918 30.6287 11.8718 30.3493 11.8718 30.0037C11.8718 29.658 11.5918 29.3787 11.2468 29.3787Z" fill="#BD0707"/>
<path d="M13.7468 31.8787H13.7399C13.3949 31.8787 13.1187 32.158 13.1187 32.5037C13.1187 32.8493 13.4012 33.1287 13.7468 33.1287C14.0918 33.1287 14.3718 32.8493 14.3718 32.5037C14.3718 32.158 14.0918 31.8787 13.7468 31.8787Z" fill="#BD0707"/>
<path d="M16.2468 34.3787H16.2399C15.8949 34.3787 15.6187 34.658 15.6187 35.0037C15.6187 35.3493 15.9012 35.6287 16.2468 35.6287C16.5918 35.6287 16.8718 35.3493 16.8718 35.0037C16.8718 34.658 16.5918 34.3787 16.2468 34.3787Z" fill="#BD0707"/>
<path d="M18.7468 36.8787H18.7399C18.3949 36.8787 18.1187 37.158 18.1187 37.5037C18.1187 37.8493 18.4012 38.1287 18.7468 38.1287C19.0918 38.1287 19.3718 37.8493 19.3718 37.5037C19.3718 37.158 19.0918 36.8787 18.7468 36.8787Z" fill="#BD0707"/>
<path d="M11.2468 24.3788H11.2399C10.8949 24.3788 10.6187 24.6582 10.6187 25.0038C10.6187 25.3494 10.9012 25.6288 11.2468 25.6288C11.5918 25.6288 11.8718 25.3494 11.8718 25.0038C11.8718 24.6582 11.5918 24.3788 11.2468 24.3788Z" fill="#BD0707"/>
<path d="M18.7468 31.8787H18.7399C18.3949 31.8787 18.1187 32.158 18.1187 32.5037C18.1187 32.8493 18.4012 33.1287 18.7468 33.1287C19.0918 33.1287 19.3718 32.8493 19.3718 32.5037C19.3718 32.158 19.0918 31.8787 18.7468 31.8787Z" fill="#BD0707"/>
<path d="M21.2468 34.3787H21.2399C20.8949 34.3787 20.6187 34.658 20.6187 35.0037C20.6187 35.3493 20.9012 35.6287 21.2468 35.6287C21.5918 35.6287 21.8718 35.3493 21.8718 35.0037C21.8718 34.658 21.5918 34.3787 21.2468 34.3787Z" fill="#BD0707"/>
<path d="M23.7468 36.8787H23.7399C23.3949 36.8787 23.1187 37.158 23.1187 37.5037C23.1187 37.8493 23.4012 38.1287 23.7468 38.1287C24.0918 38.1287 24.3718 37.8493 24.3718 37.5037C24.3718 37.158 24.0918 36.8787 23.7468 36.8787Z" fill="#BD0707"/>
<path d="M11.2468 19.3788H11.2399C10.8949 19.3788 10.6187 19.6582 10.6187 20.0038C10.6187 20.3494 10.9012 20.6288 11.2468 20.6288C11.5918 20.6288 11.8718 20.3494 11.8718 20.0038C11.8718 19.6582 11.5918 19.3788 11.2468 19.3788Z" fill="#BD0707"/>
<path d="M23.7468 31.8787H23.7399C23.3949 31.8787 23.1187 32.158 23.1187 32.5037C23.1187 32.8493 23.4012 33.1287 23.7468 33.1287C24.0918 33.1287 24.3718 32.8493 24.3718 32.5037C24.3718 32.158 24.0918 31.8787 23.7468 31.8787Z" fill="#BD0707"/>
<path d="M26.2468 34.3787H26.2399C25.8949 34.3787 25.6187 34.658 25.6187 35.0037C25.6187 35.3493 25.9012 35.6287 26.2468 35.6287C26.5918 35.6287 26.8718 35.3493 26.8718 35.0037C26.8718 34.658 26.5918 34.3787 26.2468 34.3787Z" fill="#BD0707"/>
<path d="M11.2468 14.3788H11.2399C10.8949 14.3788 10.6187 14.6582 10.6187 15.0038C10.6187 15.3494 10.9012 15.6288 11.2468 15.6288C11.5918 15.6288 11.8718 15.3494 11.8718 15.0038C11.8718 14.6582 11.5918 14.3788 11.2468 14.3788Z" fill="#BD0707"/>
<path d="M28.7468 31.8787H28.7399C28.3949 31.8787 28.1187 32.158 28.1187 32.5037C28.1187 32.8493 28.4012 33.1287 28.7468 33.1287C29.0918 33.1287 29.3718 32.8493 29.3718 32.5037C29.3718 32.158 29.0918 31.8787 28.7468 31.8787Z" fill="#BD0707"/>
<path d="M13.7468 13.1288C14.0918 13.1288 14.3718 12.8494 14.3718 12.5038C14.3718 12.1582 14.0918 11.8788 13.7468 11.8788H13.7399C13.3949 11.8788 13.1187 12.1582 13.1187 12.5038C13.1187 12.8494 13.4012 13.1288 13.7468 13.1288Z" fill="#BD0707"/>
<path d="M16.2468 15.6288C16.5918 15.6288 16.8718 15.3494 16.8718 15.0038C16.8718 14.6582 16.5918 14.3788 16.2468 14.3788H16.2399C15.8949 14.3788 15.6187 14.6582 15.6187 15.0038C15.6187 15.3494 15.9012 15.6288 16.2468 15.6288Z" fill="#BD0707"/>
<path d="M28.7468 26.8788H28.7399C28.3949 26.8788 28.1187 27.1582 28.1187 27.5038C28.1187 27.8494 28.4012 28.1288 28.7468 28.1288C29.0918 28.1288 29.3718 27.8494 29.3718 27.5038C29.3718 27.1582 29.0918 26.8788 28.7468 26.8788Z" fill="#BD0707"/>
<path d="M18.7468 13.1288C19.0918 13.1288 19.3718 12.8494 19.3718 12.5038C19.3718 12.1582 19.0918 11.8788 18.7468 11.8788H18.7399C18.3949 11.8788 18.1187 12.1582 18.1187 12.5038C18.1187 12.8494 18.4012 13.1288 18.7468 13.1288Z" fill="#BD0707"/>
<path d="M21.2468 15.6288C21.5918 15.6288 21.8718 15.3494 21.8718 15.0038C21.8718 14.6582 21.5918 14.3788 21.2468 14.3788H21.2399C20.8949 14.3788 20.6187 14.6582 20.6187 15.0038C20.6187 15.3494 20.9012 15.6288 21.2468 15.6288Z" fill="#BD0707"/>
<path d="M28.7468 21.8788H28.7399C28.3949 21.8788 28.1187 22.1582 28.1187 22.5038C28.1187 22.8494 28.4012 23.1288 28.7468 23.1288C29.0918 23.1288 29.3718 22.8494 29.3718 22.5038C29.3718 22.1582 29.0918 21.8788 28.7468 21.8788Z" fill="#BD0707"/>
<path d="M23.7468 13.1288C24.0918 13.1288 24.3718 12.8494 24.3718 12.5038C24.3718 12.1582 24.0918 11.8788 23.7468 11.8788H23.7399C23.3949 11.8788 23.1187 12.1582 23.1187 12.5038C23.1187 12.8494 23.4012 13.1288 23.7468 13.1288Z" fill="#BD0707"/>
<path d="M26.2468 15.6288C26.5918 15.6288 26.8718 15.3494 26.8718 15.0038C26.8718 14.6582 26.5918 14.3788 26.2468 14.3788H26.2399C25.8949 14.3788 25.6187 14.6582 25.6187 15.0038C25.6187 15.3494 25.9012 15.6288 26.2468 15.6288Z" fill="#BD0707"/>
<path d="M28.7468 16.8788H28.7399C28.3949 16.8788 28.1187 17.1582 28.1187 17.5038C28.1187 17.8494 28.4012 18.1288 28.7468 18.1288C29.0918 18.1288 29.3718 17.8494 29.3718 17.5038C29.3718 17.1582 29.0918 16.8788 28.7468 16.8788Z" fill="#BD0707"/>
<path d="M28.7468 11.8788H28.7399C28.3949 11.8788 28.1187 12.1582 28.1187 12.5038C28.1187 12.8494 28.4012 13.1288 28.7468 13.1288C29.0918 13.1288 29.3718 12.8494 29.3718 12.5038C29.3718 12.1582 29.0918 11.8788 28.7468 11.8788Z" fill="#BD0707"/>
<path d="M15.6638 22.72C15.6713 22.74 15.6788 22.7581 15.6881 22.7769C15.6963 22.7931 15.7006 22.8106 15.7094 22.8263L19.4631 29.075C19.5763 29.2631 19.78 29.3781 19.9988 29.3781C20.2188 29.3781 20.4219 29.2625 20.5344 29.075L24.2831 22.8263C24.2944 22.8075 24.2994 22.7869 24.3088 22.7669C24.3144 22.7544 24.32 22.7431 24.3244 22.73C24.3644 22.6269 24.3763 22.5175 24.36 22.4094C24.3163 21.2675 23.5081 20.3225 22.43 20.0738C22.1775 18.9613 21.1844 18.1263 19.9956 18.1263C18.8069 18.1263 17.815 18.9606 17.5619 20.0731C16.4519 20.3275 15.6194 21.3188 15.6194 22.5056C15.6194 22.5063 15.62 22.5075 15.62 22.5081C15.6213 22.5806 15.6381 22.6513 15.6638 22.72ZM19.9981 27.5388L17.35 23.1294H19.9894C19.9919 23.1294 19.9931 23.1306 19.9956 23.1306C19.9981 23.1306 19.9994 23.1294 20.0019 23.1294H22.645L19.9981 27.5388ZM22.9456 21.8794H20.795C21.0125 21.5081 21.41 21.2556 21.8706 21.2556C22.3313 21.2556 22.7281 21.5081 22.9456 21.8794ZM19.9963 19.3763C20.5075 19.3763 20.9469 19.6856 21.1406 20.1269C20.6906 20.265 20.2975 20.5231 19.995 20.8694C19.6931 20.5238 19.3006 20.2663 18.8519 20.1275C19.045 19.6863 19.485 19.3763 19.9963 19.3763ZM18.12 21.2556C18.58 21.2556 18.9781 21.5081 19.1956 21.8794H17.045C17.2619 21.5081 17.66 21.2556 18.12 21.2556Z" fill="#BD0707"/>
</g>
<defs>
<clipPath id="clip0_2_944">
<rect width="40" height="40" fill="white"/>
</clipPath>
</defs>
</svg>
